<?xml version="1.0" encoding="utf-8"?>
<!-- Generator: Adobe Illustrator 21.1.0, SVG Export Plug-In . SVG Version: 6.00 Build 0)  -->
<svg version="1.1" id="Layer_1" xmlns="http://www.w3.org/2000/svg" xmlns:xlink="http://www.w3.org/1999/xlink" x="0px" y="0px"
	 viewBox="0 0 667.6 560" style="enable-background:new 0 0 667.6 560;" xml:space="preserve">
<style type="text/css">
	.st0{fill:#FFFFFF;}
</style>
<g id="Monitor">
	<path class="st0" d="M667.5,27.4v406c0,15-11.5,27.8-26.7,27.8c0,0-180,0-194.6,0s37.7,80,37.7,80c4,8.3-1,18.7-8.8,18.7H193.7
		c-7.8,0-12.7-10.5-8.8-18.7c0,0,54.1-80,37.7-80s-49.5,0-49.5,0l53.6-81h408.1v-339c0-3.2-2.7-5.9-5.9-5.9h-589
		c-3.2,0-5.9,2.7-5.9,5.9v338.9h98l-53.6,81H28.2c-15,0-28.1-12.8-28.1-27.8V27.4c0-15,13-27.4,28.1-27.4h612.7
		C656,0,667.5,12.2,667.5,27.4z"/>
</g>
<g id="Stars">
	<polygon class="st0" points="401.1,264.3 362.1,272.7 353.7,311.7 345.3,272.7 306.4,264.3 345.3,255.9 353.7,216.9 362.1,255.9 	
		"/>
	<polygon class="st0" points="291.2,128.5 252.2,136.9 243.8,175.9 235.5,136.9 196.5,128.5 235.5,120.1 243.8,81 252.2,120.1 	"/>
	<polygon class="st0" points="243.9,205.4 173.4,220.6 158.2,291.1 143.2,220.6 72.6,205.4 143.2,190.3 158.2,119.8 173.4,190.3 	
		"/>
</g>
<g id="Wand">
	<path class="st0" d="M319.7,197l-29.2-19.3c-1.6-1.2-3.7-1.6-5.6-1.6c-3.5,0-6.6,1.8-8.5,4.6l-79.3,119.8l-53.6,81L60.6,506.7
		c-1.5,2.2-2.1,5-1.5,7.7s2.1,5,4.4,6.5l29.2,19.3c1.6,1.2,3.7,1.6,5.6,1.6c3.5,0,6.8-1.8,8.5-4.6l103.1-155.9l53.6-81l58.9-89.1
		C325.7,206.4,324.4,200.1,319.7,197z M303,210.2l-56.6,85.5l-18.3-12.1l56.6-85.5c0.6-0.9,1.6-1.5,2.8-1.5c0.4,0,1.2,0.1,1.8,0.6
		l12.7,8.4C303.6,206.6,304,208.6,303,210.2z"/>
</g>
</svg>
