<?xml version="1.0" encoding="utf-8"?>
<!-- Generator: Adobe Illustrator 21.1.0, SVG Export Plug-In . SVG Version: 6.00 Build 0)  -->
<svg version="1.1" id="Layer_1" xmlns="http://www.w3.org/2000/svg" xmlns:xlink="http://www.w3.org/1999/xlink" x="0px" y="0px"
	 viewBox="0 0 667.7 560" style="enable-background:new 0 0 667.7 560;" xml:space="preserve">
<style type="text/css">
	.st0{fill:#FFFFFF;}
</style>
<g id="Monitor">
	<path class="st0" d="M641.7,0H28.9C13.7,0,0,12.2,0,27.4v406.1c0,14.9,13.7,27.7,28.9,27.7h145.7c0,0,32.4,0,48.8,0
		s-37.7,80-37.7,80c-4,8.3,1,18.7,8.8,18.7H476c7.8,0,12.7-10.5,8.8-18.7c0,0-52.3-80-37.7-80s194.7,0,194.7,0
		c15,0,25.9-12.8,25.9-27.9v-406C667.6,12.2,656.8,0,641.7,0z M635.2,380.2H33.9V41.3c0-3.2,3.4-5.9,6.6-5.9H630
		c3.2,0,5.2,2.7,5.2,5.9V380.2z"/>
</g>
<g id="Brackets">
	<path class="st0" d="M573.6,213.1c-1.2,3.1-3.4,5.9-6.6,7.7l-117.9,69c-2.5,1.5-5.2,2.1-7.8,2.1c-5.3,0-10.5-2.8-13.4-7.7
		c-4.3-7.4-1.8-16.9,5.6-21.2l96.1-56.1l-96.2-54.1c-5-2.8-7.8-8.1-7.8-13.6c0-2.5,0.6-5.2,1.9-7.5c4.1-7.4,13.7-10,21.1-5.9
		l119.1,66.9C574.6,196.7,577.4,205.7,573.6,213.1z"/>
	<path class="st0" d="M239.5,284.1c-2.9,4.9-8.1,7.7-13.4,7.7c-2.7,0-5.3-0.7-7.8-2.1l-117.9-69c-3.1-1.8-5.3-4.6-6.6-7.7
		c-3.7-7.4-1-16.4,6.2-20.5l119.1-66.9c7.4-4.1,16.9-1.5,21.1,5.9c1.3,2.4,1.9,5,1.9,7.5c0,5.5-2.8,10.8-7.8,13.6l-96.5,54.3
		l96.1,56.1C241.4,267.3,243.9,276.9,239.5,284.1z"/>
</g>
<g id="Wand">
	<path class="st0" d="M406.9,107.6c0,2.7-0.7,5.3-2.1,7.7L289.4,315.7c-4.3,7.4-13.7,9.9-21.1,5.7c-7.4-4.3-9.9-13.7-5.7-21.1
		L378,99.9c4.3-7.4,13.7-9.9,21.1-5.7C404.1,97.1,406.9,102.3,406.9,107.6z"/>
</g>
</svg>
